<svg width="32" height="33" viewBox="0 0 32 33" fill="none" xmlns="http://www.w3.org/2000/svg">
<path d="M15.5452 3.10079C19.6959 3.10079 20.1886 3.11679 21.8283 3.20079C26.0408 3.40079 28.0106 5.50079 28.2008 9.90079C28.276 11.6238 28.2903 12.1418 28.2903 16.5008C28.2903 20.8598 28.275 21.3828 28.2008 23.1008C28.0106 27.4938 26.0456 29.6008 21.8283 29.8008C20.1886 29.8798 19.6987 29.9008 15.5452 29.9008C11.3916 29.9008 10.9018 29.8848 9.26776 29.8008C5.04477 29.6008 3.08545 27.4868 2.89522 23.1008C2.82008 21.3778 2.80011 20.8618 2.80011 16.5008C2.80011 12.1398 2.81723 11.6208 2.89522 9.90079C3.08545 5.50079 5.05047 3.40079 9.26776 3.20079C10.9075 3.12279 11.3992 3.10679 15.5452 3.10679V3.10079ZM15.5452 0.154785C11.3241 0.154785 10.7953 0.173785 9.1365 0.254785C3.49158 0.524785 0.353818 3.81878 0.0951125 9.75978C0.0190225 11.5048 0 12.0598 0 16.4988C0 20.9378 0.0180714 21.4988 0.0951125 23.2378C0.353818 29.1738 3.48682 32.4728 9.13746 32.7448C10.7972 32.8238 11.325 32.8448 15.5471 32.8448C19.7691 32.8448 20.3027 32.8258 21.9567 32.7448C27.5969 32.4728 30.7423 29.1788 30.9981 23.2378C31.0742 21.4948 31.0932 20.9378 31.0932 16.4988C31.0932 12.0598 31.0751 11.5038 30.9981 9.76079C30.7442 3.83079 27.6073 0.526785 21.9567 0.254785C20.297 0.174785 19.7691 0.154785 15.5452 0.154785ZM15.5452 8.10679C13.9663 8.10679 12.4229 8.59903 11.1102 9.52126C9.79742 10.4435 8.77425 11.7543 8.17005 13.2879C7.56585 14.8215 7.40776 16.5091 7.71578 18.1372C8.0238 19.7653 8.78409 21.2607 9.9005 22.4345C11.0169 23.6083 12.4393 24.4077 13.9878 24.7315C15.5363 25.0554 17.1414 24.8892 18.6001 24.2539C20.0587 23.6187 21.3055 22.5429 22.1826 21.1627C23.0598 19.7825 23.528 18.1598 23.528 16.4998C23.528 14.2738 22.6869 12.139 21.1899 10.565C19.6928 8.99104 17.6623 8.10679 15.5452 8.10679ZM15.5452 21.9478C14.5203 21.9478 13.5185 21.6283 12.6664 21.0296C11.8142 20.431 11.1501 19.5801 10.7579 18.5846C10.3657 17.5892 10.2631 16.4937 10.463 15.4369C10.663 14.3801 11.1565 13.4094 11.8811 12.6475C12.6058 11.8856 13.5291 11.3667 14.5343 11.1565C15.5394 10.9463 16.5813 11.0541 17.5281 11.4665C18.475 11.8788 19.2843 12.5771 19.8536 13.473C20.423 14.369 20.7269 15.4223 20.7269 16.4998C20.7269 17.2152 20.5929 17.9236 20.3325 18.5845C20.072 19.2454 19.6903 19.8459 19.2092 20.3517C18.728 20.8576 18.1567 21.2588 17.5281 21.5324C16.8994 21.8061 16.2256 21.9479 15.5452 21.9478ZM23.8447 5.81379C23.4758 5.81359 23.1151 5.92843 22.8082 6.14379C22.5014 6.35914 22.2622 6.66534 22.1208 7.02365C21.9795 7.38196 21.9425 7.77628 22.0143 8.15674C22.0862 8.53721 22.2637 8.88672 22.5245 9.16107C22.7854 9.43542 23.1177 9.62228 23.4795 9.69803C23.8414 9.77378 24.2164 9.735 24.5573 9.58661C24.8982 9.43821 25.1895 9.18687 25.3945 8.86436C25.5995 8.54186 25.7089 8.16268 25.7089 7.77479C25.7087 7.25495 25.5122 6.75647 25.1627 6.38879C24.8131 6.02112 24.3391 5.81431 23.8447 5.81379Z" fill="#4B4B4B"/>
</svg>
