<svg width="25" height="16" viewBox="0 0 25 16" fill="none" xmlns="http://www.w3.org/2000/svg">
<path d="M9.48635 15.9961C9.74251 15.9711 9.98613 15.8732 10.1883 15.714C10.3905 15.5547 10.5427 15.3408 10.6269 15.0976C10.7112 14.8544 10.7238 14.5921 10.6635 14.3419C10.6031 14.0917 10.4722 13.8641 10.2863 13.6861L5.93435 9.33909L22.8213 9.33909C22.8633 9.34171 22.9054 9.34171 22.9473 9.33909C23.1272 9.33568 23.3046 9.29624 23.469 9.22311C23.6334 9.14997 23.7814 9.04462 23.9044 8.91328C24.0274 8.78195 24.1228 8.62729 24.1849 8.45845C24.2471 8.28961 24.2748 8.11002 24.2664 7.9303C24.258 7.75058 24.2136 7.57437 24.1359 7.41209C24.0582 7.24981 23.9488 7.10475 23.814 6.98549C23.6793 6.86623 23.5221 6.77519 23.3516 6.71776C23.1811 6.66032 23.0008 6.63765 22.8213 6.65108L5.93435 6.65108L10.3023 2.30408C10.5558 2.05067 10.6981 1.70697 10.6981 1.34858C10.6981 0.990202 10.5558 0.646499 10.3023 0.393085C10.0489 0.13967 9.70523 -0.00269508 9.34685 -0.00269508C8.98846 -0.00269508 8.64476 0.13967 8.39135 0.393085L1.75535 7.05008L0.789347 7.99509L1.75535 8.94009L8.39435 15.5971C8.53484 15.7412 8.70592 15.8518 8.89493 15.9209C9.08395 15.9899 9.28606 16.0156 9.48635 15.9961Z" fill="black"/>
</svg>
