<svg width="20" height="20" viewBox="0 0 20 20" fill="none" xmlns="http://www.w3.org/2000/svg">
<path d="M13.973 15.031C12.2924 16.4381 10.1336 17.1424 7.94654 16.9973C5.75944 16.8521 3.71269 15.8687 2.23274 14.2518C0.752793 12.635 -0.0462137 10.5094 0.00220044 8.31801C0.0506146 6.12662 0.942715 4.03842 2.49263 2.4885C4.04254 0.938571 6.13073 0.0464645 8.3221 -0.00194994C10.5135 -0.0503644 12.639 0.748647 14.2559 2.22861C15.8727 3.70857 16.8562 5.75533 17.0013 7.94244C17.1465 10.1296 16.4421 12.2883 15.035 13.969L19.784 18.719C19.9171 18.8613 19.9897 19.0498 19.9864 19.2447C19.9831 19.4396 19.9042 19.6255 19.7663 19.7633C19.6285 19.901 19.4424 19.9798 19.2475 19.9829C19.0527 19.986 18.8642 19.9133 18.722 19.78L13.973 15.031ZM8.51207 1.49998C7.12623 1.49998 5.77151 1.91093 4.61922 2.68087C3.46693 3.45081 2.56883 4.54515 2.03849 5.82552C1.50815 7.10588 1.36939 8.51475 1.63976 9.87398C1.91012 11.2332 2.57747 12.4817 3.55741 13.4617C4.53735 14.4416 5.78587 15.109 7.14508 15.3793C8.5043 15.6497 9.91317 15.5109 11.1935 14.9806C12.4739 14.4503 13.5682 13.5522 14.3381 12.3999C15.1081 11.2476 15.519 9.89283 15.519 8.50698C15.5182 6.64885 14.7797 4.86705 13.4659 3.55316C12.152 2.23926 10.3702 1.50077 8.51207 1.49998Z" fill="white"/>
</svg>
