<?xml version="1.0" encoding="UTF-8"?>
<svg id="Calque_1" xmlns="http://www.w3.org/2000/svg" version="1.1" viewBox="0 0 24 24">
  <!-- Generator: Adobe Illustrator 29.4.0, SVG Export Plug-In . SVG Version: 2.1.0 Build 60)  -->
  <defs>
    <style>
      .st0 {
        fill: #fff;
      }
    </style>
  </defs>
  <path class="st0" d="M13.1,12l5.5-5.5c.3-.3.3-.8,0-1.1s-.8-.3-1.1,0l-5.5,5.5-5.5-5.5c-.3-.3-.8-.3-1.1,0s-.3.8,0,1.1l5.5,5.5-5.5,5.5c-.3.3-.3.8,0,1.1s.3.2.5.2.4,0,.5-.2l5.5-5.5,5.5,5.5c.1.1.3.2.5.2s.4,0,.5-.2c.3-.3.3-.8,0-1.1l-5.5-5.5Z"/>
</svg>