<svg width="76" height="43" viewBox="0 0 76 43" fill="none" xmlns="http://www.w3.org/2000/svg">
<path d="M44.7411 0.920116C36.534 0.529953 28.3103 0.670245 20.1213 1.34012C16.1913 1.67012 12.8313 2.07012 11.8613 2.53012C9.4165 3.66817 7.22362 5.2831 5.41136 7.28012C3.65877 9.21955 2.29416 11.4769 1.39139 13.9301C0.484639 16.3373 0.0172339 18.8878 0.0113983 21.4601C0.0278987 24.139 0.532823 26.7924 1.50139 29.2901C2.46997 31.8055 3.8786 34.1284 5.66136 36.1501C7.45222 38.1685 9.61054 39.828 12.0213 41.0401C14.1713 42.1301 29.7012 42.7401 35.6212 42.8801C35.7056 42.8825 35.7887 42.8597 35.8602 42.8147C35.9316 42.7697 35.988 42.7044 36.0223 42.6273C36.0566 42.5501 36.0672 42.4646 36.0527 42.3814C36.0383 42.2982 35.9995 42.2212 35.9412 42.1601L29.4512 35.6701C29.3774 35.5947 29.2767 35.5516 29.1712 35.5501C23.2612 35.3601 16.3213 35.0401 15.4613 34.6001C13.9772 33.8313 12.6616 32.7739 11.5913 31.4901C10.4904 30.1643 9.646 28.6451 9.10134 27.0101C8.51249 25.3054 8.215 23.5137 8.22134 21.7101C8.22557 20.0314 8.48175 18.3628 8.98134 16.7601C9.46105 15.153 10.2266 13.6455 11.2413 12.3101C12.2513 10.9932 13.5295 9.9059 14.9913 9.12012C16.4813 8.31012 35.4812 7.90012 37.5812 7.89012C37.6645 7.89035 37.7458 7.91518 37.8151 7.96149C37.8843 8.0078 37.9384 8.07352 37.9704 8.15042C38.0025 8.22732 38.0111 8.31197 37.9952 8.39375C37.9793 8.47553 37.9396 8.5508 37.8811 8.61012L25.6212 20.8701C25.5809 20.909 25.5489 20.9556 25.527 21.0072C25.5051 21.0587 25.4939 21.1141 25.4939 21.1701C25.4939 21.2261 25.5051 21.2815 25.527 21.3331C25.5489 21.3846 25.5809 21.4312 25.6212 21.4701L39.8911 35.7401L46.7011 42.5501C46.7428 42.5917 46.7929 42.624 46.8481 42.6447C46.9033 42.6654 46.9623 42.674 47.0211 42.6701C50.2911 42.5201 53.921 42.3001 56.931 42.0301C59.032 41.9458 61.1161 41.6169 63.141 41.0501C65.5518 39.838 67.7101 38.1785 69.5009 36.1601C71.2872 34.141 72.6962 31.8174 73.6609 29.3001C74.6449 26.8069 75.1504 24.1505 75.1509 21.4701C75.1558 18.8968 74.688 16.3445 73.7709 13.9401C72.8681 11.4869 71.5035 9.22956 69.7509 7.29012C68.3879 5.78772 66.8029 4.50284 65.051 3.48012C64.969 3.4319 64.8732 3.4126 64.7789 3.42529C64.6846 3.43798 64.5973 3.48194 64.531 3.55012L59.761 8.32012C59.7084 8.37217 59.6704 8.43705 59.6505 8.50834C59.6307 8.57963 59.6299 8.65485 59.6481 8.72656C59.6662 8.79828 59.7028 8.86401 59.7542 8.91725C59.8056 8.97049 59.87 9.00939 59.941 9.03012C60.0156 9.05306 60.0891 9.07976 60.161 9.11012C61.6206 9.89907 62.8982 10.9859 63.911 12.3001C64.9238 13.6367 65.6891 15.1438 66.171 16.7501C66.6705 18.3528 66.9267 20.0214 66.931 21.7001C66.9381 23.5037 66.6406 25.2956 66.051 27.0001C65.4983 28.6315 64.6547 30.1494 63.561 31.4801C62.4952 32.7684 61.1785 33.8265 59.691 34.5901C59.061 34.9201 54.991 35.1801 50.4711 35.3801C50.3528 35.3833 50.238 35.3403 50.1511 35.2601L36.3512 21.4601C36.3109 21.4212 36.2788 21.3746 36.257 21.3231C36.2351 21.2715 36.2238 21.2161 36.2238 21.1601C36.2238 21.1041 36.2351 21.0487 36.257 20.9972C36.2788 20.9456 36.3109 20.899 36.3512 20.8601L49.0211 8.19012L55.031 2.18012C55.0895 2.12242 55.1302 2.04907 55.148 1.96887C55.1659 1.88867 55.1602 1.80501 55.1317 1.72795C55.1032 1.65088 55.0531 1.58368 54.9873 1.5344C54.9216 1.48512 54.843 1.45585 54.761 1.45012C51.7711 1.25012 48.4411 1.09012 45.4911 0.970116L44.7111 0.930116L44.7411 0.920116Z" fill="url(#paint0_linear_1_268)"/>
<defs>
<linearGradient id="paint0_linear_1_268" x1="-2.8439" y1="21.7926" x2="296.287" y2="21.7926" gradientUnits="userSpaceOnUse">
<stop stop-color="#E94E6F"/>
<stop offset="1" stop-color="#F39870"/>
</linearGradient>
</defs>
</svg>
