<svg width="292" height="55" viewBox="0 0 292 55" fill="none" xmlns="http://www.w3.org/2000/svg">
<path d="M87.6008 34.1601C87.586 31.5729 88.054 29.0057 88.9808 26.5901C89.8777 24.2547 91.2384 22.1253 92.9808 20.3301C94.7899 18.4999 96.9405 17.0423 99.3107 16.0401C101.961 14.9365 104.81 14.3918 107.681 14.4401C111.415 14.3295 115.106 15.2609 118.341 17.1301C121.164 18.8054 123.448 21.2557 124.921 24.1901L115.391 27.1001C114.612 25.7457 113.482 24.6264 112.121 23.8601C110.829 23.1706 109.397 22.786 107.934 22.7357C106.471 22.6855 105.016 22.9709 103.681 23.5701C102.477 24.1194 101.401 24.9129 100.521 25.9001C99.5873 26.9495 98.8703 28.1729 98.4107 29.5001C97.8877 30.9973 97.6305 32.5744 97.6508 34.1601C97.6334 35.7491 97.9044 37.328 98.4507 38.8201C98.9387 40.1548 99.6674 41.3885 100.601 42.4601C101.474 43.463 102.551 44.2676 103.761 44.8201C104.97 45.3797 106.288 45.6664 107.621 45.6601C109.323 45.6709 110.996 45.218 112.461 44.3501C113.797 43.6292 114.877 42.511 115.551 41.1501L125.081 44.0601C123.705 47.0433 121.447 49.5321 118.611 51.1901C115.325 53.1031 111.571 54.0591 107.771 53.9501C104.901 53.9965 102.051 53.4518 99.4007 52.3501C97.0433 51.3634 94.9095 49.9106 93.1275 48.0788C91.3456 46.2469 89.9521 44.0739 89.0308 41.6901C88.0831 39.2932 87.6011 36.7376 87.6108 34.1601H87.6008Z" fill="url(#paint0_linear_1_259)"/>
<path d="M151.98 53.2201L140.92 36.7101L135.681 41.8701V53.2201H125.931V0.120117H135.681V32.3501L150.96 15.1801H161.36L147.17 31.3301L162.37 53.2301H151.97L151.98 53.2201Z" fill="url(#paint1_linear_1_259)"/>
<path d="M157.07 34.1601C157.056 31.5729 157.524 29.0057 158.45 26.5901C159.347 24.2547 160.708 22.1253 162.45 20.3301C164.259 18.4999 166.41 17.0423 168.78 16.0401C171.43 14.9365 174.28 14.3918 177.15 14.4401C180.884 14.3295 184.576 15.2609 187.81 17.1301C190.634 18.8054 192.917 21.2557 194.39 24.1901L184.86 27.1001C184.081 25.7457 182.952 24.6264 181.59 23.8601C180.299 23.1706 178.867 22.786 177.404 22.7357C175.941 22.6855 174.486 22.9709 173.15 23.5701C171.947 24.1194 170.871 24.9129 169.99 25.9001C169.057 26.9495 168.34 28.1729 167.88 29.5001C167.357 30.9973 167.1 32.5744 167.12 34.1601C167.103 35.7491 167.374 37.328 167.92 38.8201C168.408 40.1548 169.137 41.3885 170.07 42.4601C170.943 43.463 172.021 44.2676 173.23 44.8201C174.44 45.3797 175.758 45.6664 177.09 45.6601C178.793 45.6709 180.466 45.218 181.93 44.3501C183.267 43.6292 184.346 42.511 185.02 41.1501L194.55 44.0601C193.175 47.0433 190.916 49.5321 188.08 51.1901C184.795 53.1031 181.04 54.0591 177.24 53.9501C174.37 53.9965 171.521 53.4518 168.87 52.3501C166.513 51.3634 164.379 49.9106 162.597 48.0788C160.815 46.2469 159.422 44.0739 158.5 41.6901C157.553 39.2932 157.071 36.7376 157.08 34.1601H157.07Z" fill="url(#paint2_linear_1_259)"/>
<path d="M229.09 53.2201H222.69V31.9801C222.69 27.9134 222.073 24.9568 220.84 23.1101C220.221 22.1999 219.375 21.4667 218.386 20.9827C217.397 20.4988 216.299 20.2807 215.2 20.3501C213.854 20.3553 212.521 20.6131 211.27 21.1101C209.945 21.6277 208.697 22.3242 207.56 23.1801C206.389 24.0645 205.358 25.1196 204.5 26.3101C203.627 27.5238 202.964 28.8761 202.54 30.3101V53.2201H196.14V15.2501H201.96V23.4001C203.491 20.7014 205.746 18.4845 208.47 17.0001C211.3 15.4022 214.5 14.5746 217.75 14.6001C219.642 14.5344 221.52 14.9471 223.21 15.8001C224.649 16.5883 225.854 17.7443 226.7 19.1501C227.618 20.7116 228.248 22.4256 228.56 24.2101C228.936 26.2989 229.121 28.4177 229.11 30.5401V53.2401L229.09 53.2201Z" fill="url(#paint3_linear_1_259)"/>
<path d="M250.77 53.9501C248.07 53.9822 245.393 53.4509 242.91 52.3901C240.605 51.4002 238.526 49.9506 236.8 48.1301C235.083 46.3114 233.738 44.1747 232.84 41.8401C231.887 39.4202 231.406 36.8407 231.42 34.2401C231.404 31.6491 231.886 29.0791 232.84 26.6701C234.251 23.0598 236.733 19.9676 239.952 17.8083C243.171 15.649 246.974 14.5261 250.85 14.5901C253.434 14.5526 255.998 15.0543 258.377 16.0633C260.757 17.0723 262.9 18.5663 264.67 20.4501C266.332 22.2427 267.629 24.3417 268.49 26.6301C269.386 28.9628 269.844 31.4411 269.84 33.9401C269.84 34.4701 269.83 34.9601 269.8 35.3901C269.784 35.7321 269.747 36.0727 269.69 36.4101H238.19C238.31 38.1954 238.754 39.9439 239.5 41.5701C240.188 43.0694 241.151 44.4262 242.34 45.5701C243.487 46.68 244.83 47.5683 246.3 48.1901C247.782 48.8226 249.378 49.1459 250.99 49.1401C252.146 49.139 253.296 48.9809 254.41 48.6701C255.499 48.3688 256.549 47.9426 257.54 47.4001C258.493 46.8796 259.363 46.2189 260.12 45.4401C260.854 44.6858 261.435 43.796 261.83 42.8201L267.36 44.3501C266.72 45.7712 265.848 47.0757 264.78 48.2101C263.668 49.3893 262.395 50.406 261 51.2301C259.51 52.1065 257.909 52.7791 256.24 53.2301C254.461 53.718 252.624 53.9635 250.78 53.9601L250.77 53.9501ZM263.79 31.6901C263.662 29.9591 263.204 28.2686 262.44 26.7101C261.738 25.2514 260.775 23.9331 259.6 22.8201C257.803 21.171 255.578 20.061 253.18 19.6171C250.782 19.1733 248.308 19.4134 246.04 20.3101C244.567 20.8946 243.222 21.7608 242.08 22.8601C240.925 23.9729 239.989 25.2924 239.32 26.7501C238.601 28.3099 238.171 29.987 238.05 31.7001H263.8L263.79 31.6901Z" fill="url(#paint4_linear_1_259)"/>
<path d="M291.139 51.3301C290.75 51.5201 290.24 51.7601 289.61 52.0201C288.98 52.2801 288.26 52.5501 287.46 52.8201C286.603 53.1012 285.728 53.3184 284.84 53.4701C283.866 53.6406 282.878 53.7243 281.89 53.7201C279.717 53.7716 277.59 53.0919 275.85 51.7901C274.15 50.5101 273.3 48.5101 273.3 45.7901V20.2601H268.14V15.2401H273.3V2.59012H279.7V15.2501H288.21V20.2701H279.7V43.8401C279.694 44.4197 279.815 44.9935 280.053 45.5219C280.291 46.0502 280.642 46.5205 281.08 46.9001C281.914 47.5367 282.94 47.8716 283.99 47.8501C285.172 47.8623 286.345 47.652 287.45 47.2301C288.19 46.9586 288.909 46.631 289.6 46.2501L291.13 51.3401L291.139 51.3301Z" fill="url(#paint5_linear_1_259)"/>
<path d="M44.7411 12.9201C36.534 12.53 28.3103 12.6702 20.1213 13.3401C16.1913 13.6701 12.8313 14.0701 11.8613 14.5301C9.4165 15.6682 7.22362 17.2831 5.41136 19.2801C3.65877 21.2196 2.29416 23.4769 1.39139 25.9301C0.484639 28.3373 0.0172339 30.8878 0.0113983 33.4601C0.0278987 36.139 0.532823 38.7924 1.50139 41.2901C2.46997 43.8055 3.8786 46.1284 5.66136 48.1501C7.45222 50.1685 9.61054 51.828 12.0213 53.0401C14.1713 54.1301 29.7012 54.7401 35.6212 54.8801C35.7056 54.8825 35.7887 54.8597 35.8602 54.8147C35.9316 54.7697 35.988 54.7044 36.0223 54.6273C36.0566 54.5501 36.0672 54.4646 36.0527 54.3814C36.0383 54.2982 35.9995 54.2212 35.9412 54.1601L29.4512 47.6701C29.3774 47.5947 29.2767 47.5516 29.1712 47.5501C23.2612 47.3601 16.3213 47.0401 15.4613 46.6001C13.9772 45.8313 12.6616 44.7739 11.5913 43.4901C10.4904 42.1643 9.646 40.6451 9.10134 39.0101C8.51249 37.3054 8.215 35.5137 8.22134 33.7101C8.22557 32.0314 8.48175 30.3628 8.98134 28.7601C9.46105 27.153 10.2266 25.6455 11.2413 24.3101C12.2513 22.9932 13.5295 21.9059 14.9913 21.1201C16.4813 20.3101 35.4812 19.9001 37.5812 19.8901C37.6645 19.8904 37.7458 19.9152 37.8151 19.9615C37.8843 20.0078 37.9384 20.0735 37.9704 20.1504C38.0025 20.2273 38.0111 20.312 37.9952 20.3937C37.9793 20.4755 37.9396 20.5508 37.8811 20.6101L25.6212 32.8701C25.5809 32.909 25.5489 32.9556 25.527 33.0072C25.5051 33.0587 25.4939 33.1141 25.4939 33.1701C25.4939 33.2261 25.5051 33.2815 25.527 33.3331C25.5489 33.3846 25.5809 33.4312 25.6212 33.4701L39.8911 47.7401L46.7011 54.5501C46.7428 54.5917 46.7929 54.624 46.8481 54.6447C46.9033 54.6654 46.9623 54.674 47.0211 54.6701C50.2911 54.5201 53.921 54.3001 56.931 54.0301C59.032 53.9458 61.1161 53.6169 63.141 53.0501C65.5518 51.838 67.7101 50.1785 69.5009 48.1601C71.2872 46.141 72.6962 43.8174 73.6609 41.3001C74.6449 38.8069 75.1504 36.1505 75.1509 33.4701C75.1558 30.8968 74.688 28.3445 73.7709 25.9401C72.8681 23.4869 71.5035 21.2296 69.7509 19.2901C68.3879 17.7877 66.8029 16.5028 65.051 15.4801C64.969 15.4319 64.8732 15.4126 64.7789 15.4253C64.6846 15.438 64.5973 15.4819 64.531 15.5501L59.761 20.3201C59.7084 20.3722 59.6704 20.4371 59.6505 20.5083C59.6307 20.5796 59.6299 20.6548 59.6481 20.7266C59.6662 20.7983 59.7028 20.864 59.7542 20.9173C59.8056 20.9705 59.87 21.0094 59.941 21.0301C60.0156 21.0531 60.0891 21.0798 60.161 21.1101C61.6206 21.8991 62.8982 22.9859 63.911 24.3001C64.9238 25.6367 65.6891 27.1438 66.171 28.7501C66.6705 30.3528 66.9267 32.0214 66.931 33.7001C66.9381 35.5037 66.6406 37.2956 66.051 39.0001C65.4983 40.6315 64.6547 42.1494 63.561 43.4801C62.4952 44.7684 61.1785 45.8265 59.691 46.5901C59.061 46.9201 54.991 47.1801 50.4711 47.3801C50.3528 47.3833 50.238 47.3403 50.1511 47.2601L36.3512 33.4601C36.3109 33.4212 36.2788 33.3746 36.257 33.3231C36.2351 33.2715 36.2238 33.2161 36.2238 33.1601C36.2238 33.1041 36.2351 33.0487 36.257 32.9972C36.2788 32.9456 36.3109 32.899 36.3512 32.8601L49.0211 20.1901L55.031 14.1801C55.0895 14.1224 55.1302 14.0491 55.148 13.9689C55.1659 13.8887 55.1602 13.805 55.1317 13.7279C55.1032 13.6509 55.0531 13.5837 54.9873 13.5344C54.9216 13.4851 54.843 13.4559 54.761 13.4501C51.7711 13.2501 48.4411 13.0901 45.4911 12.9701L44.7111 12.9301L44.7411 12.9201Z" fill="url(#paint6_linear_1_259)"/>
<defs>
<linearGradient id="paint0_linear_1_259" x1="-2.839" y1="34.1949" x2="296.252" y2="34.1949" gradientUnits="userSpaceOnUse">
<stop stop-color="#E94E6F"/>
<stop offset="1" stop-color="#F39870"/>
</linearGradient>
<linearGradient id="paint1_linear_1_259" x1="-2.84751" y1="26.6751" x2="296.25" y2="26.6751" gradientUnits="userSpaceOnUse">
<stop stop-color="#E94E6F"/>
<stop offset="1" stop-color="#F39870"/>
</linearGradient>
<linearGradient id="paint2_linear_1_259" x1="-2.85758" y1="34.1949" x2="296.234" y2="34.1949" gradientUnits="userSpaceOnUse">
<stop stop-color="#E94E6F"/>
<stop offset="1" stop-color="#F39870"/>
</linearGradient>
<linearGradient id="paint3_linear_1_259" x1="-2.83516" y1="33.9167" x2="296.238" y2="33.9167" gradientUnits="userSpaceOnUse">
<stop stop-color="#E94E6F"/>
<stop offset="1" stop-color="#F39870"/>
</linearGradient>
<linearGradient id="paint4_linear_1_259" x1="-2.8667" y1="34.2738" x2="296.234" y2="34.2738" gradientUnits="userSpaceOnUse">
<stop stop-color="#E94E6F"/>
<stop offset="1" stop-color="#F39870"/>
</linearGradient>
<linearGradient id="paint5_linear_1_259" x1="-2.84458" y1="28.1565" x2="296.245" y2="28.1565" gradientUnits="userSpaceOnUse">
<stop stop-color="#E94E6F"/>
<stop offset="1" stop-color="#F39870"/>
</linearGradient>
<linearGradient id="paint6_linear_1_259" x1="-2.8439" y1="33.7926" x2="296.287" y2="33.7926" gradientUnits="userSpaceOnUse">
<stop stop-color="#E94E6F"/>
<stop offset="1" stop-color="#F39870"/>
</linearGradient>
</defs>
</svg>
